<svg xmlns="http://www.w3.org/2000/svg" viewBox="0 0 64 64" role="img" aria-label="Frank Sites">
  <defs>
    <linearGradient id="fs-gradient" x1="10" y1="8" x2="56" y2="58" gradientUnits="userSpaceOnUse">
      <stop offset="0" stop-color="#c96b3c"/>
      <stop offset=".48" stop-color="#d4785a"/>
      <stop offset="1" stop-color="#7aafc4"/>
    </linearGradient>
    <filter id="soft-depth" x="-20%" y="-20%" width="140%" height="140%">
      <feDropShadow dx="0" dy="2" stdDeviation="2" flood-color="#2e2118" flood-opacity=".18"/>
    </filter>
  </defs>
  <rect width="64" height="64" rx="16" fill="#fbf7f2"/>
  <rect x="5" y="5" width="54" height="54" rx="14" fill="url(#fs-gradient)" filter="url(#soft-depth)"/>
  <path fill="#fffdf9" d="M18 46V18h20v7H26v5h10.5v7H26v9h-8Zm23.2.5c-3.9 0-7.4-1.2-10-3.4l4-5.3c1.9 1.4 4 2.1 6.2 2.1 1.8 0 2.8-.6 2.8-1.6 0-1.2-1.1-1.6-4.3-2.5-5.1-1.3-8.2-3.1-8.2-8.6 0-5.4 4.2-9.2 10.7-9.2 3.7 0 6.6.9 9 2.8l-3.7 5.5c-1.7-1.1-3.6-1.7-5.4-1.7-1.5 0-2.3.6-2.3 1.5 0 1.2 1.1 1.6 4.4 2.5 5.5 1.5 8.1 3.6 8.1 8.5 0 5.8-4.4 9.4-11.3 9.4Z"/>
</svg>
